#!OML:ASF I:\Actors\actors\Patient Classification 1\Patient 1\Session 1\Subject1.ASF
:FULLY-SPECIFIED
:DEGREES
1020
root -0.350462 17.6482 7.94233 12.032 0.207835 -6.72702
lowerback 1.92797 0.693666 6.51296
upperback -10.0599 1.44545 -0.316522
thorax -11.7807 0.0619621 -4.15586
lowerneck -11.5757 -4.88696 -5.29634
upperneck 18.3704 -8.71263 14.3112
head 8.5081 -3.18382 4.7407
rclavicle -1.0138e-014 1.59028e-014
rhumerus -68.9312 -8.87642 -54.4882
rradius 127.739
rwrist 10.3865
rhand -13.6561 -47.4136
rfingers 7.12502
rthumb 12.4607 -77.0222
lclavicle -1.0138e-014 1.59028e-014
lhumerus -65.0146 19.5187 36.2766
lradius 132.428
lwrist 1.81685
lhand -20.8154 -12.7733
lfingers 7.12502
lthumb 5.55258 17.1339
rfemur -5.90885 25.6188 22.8139
rtibia 1.79971
rfoot -12.1375 -25.7517
rtoes 1.73423
lfemur 180.221 222.245 167.922
ltibia -4.27202
lfoot 348.149 -312.467
ltoes 1.29609
1021
root -0.354917 17.6435 7.94991 11.4243 0.320204 -6.66629
lowerback 1.68295 0.666631 6.42839
upperback -10.0153 1.37737 -0.357559
thorax -11.5854 0.0432312 -4.13899
lowerneck -11.427 -4.86824 -5.29486
upperneck 18.8215 -8.73837 14.2468
head 8.63084 -3.19126 4.72788
rclavicle -1.33186e-014 1.11319e-014
rhumerus -69.3398 -9.65834 -57.6773
rradius 128.277
rwrist 11.0745
rhand -14.802 -48.0468
rfingers 7.12502
rthumb 11.3557 -77.7194
lclavicle -1.33186e-014 1.11319e-014
lhumerus -65.5388 20.0176 39.7474
lradius 132.553
lwrist 1.19724
lhand -23.7368 -13.815
lfingers 7.12502
lthumb 2.73151 16.1472
rfemur -5.2398 25.2082 23.1053
rtibia 2.00836
rfoot -12.2968 -25.4737
rtoes 1.60697
lfemur 181.015 221.654 167.312
ltibia -4.26306
lfoot 348.533 -313.17
ltoes 0.507444
1022
root -0.359629 17.6379 7.95396 10.8001 0.40444 -6.60154
lowerback 1.506 0.639414 6.29937
upperback -9.95749 1.3127 -0.380579
thorax -11.4165 0.0303947 -4.07978
lowerneck -11.2409 -4.83057 -5.27095
upperneck 19.1853 -8.72249 14.1504
head 8.7103 -3.18543 4.70379
rclavicle -1.92821e-014 9.54166e-015
rhumerus -69.4464 -10.3542 -60.8254
rradius 128.489
rwrist 11.7835
rhand -16.0523 -48.5975
rfingers 7.12502
rthumb 10.1497 -78.3326
lclavicle -1.92821e-014 9.54166e-015
lhumerus -65.8069 20.5158 43.2832
lradius 132.26
lwrist 0.548896
lhand -26.5722 -15.0042
lfingers 7.12502
lthumb -0.00692173 14.9755
rfemur -4.5847 24.7896 23.3755
rtibia 2.23225
rfoot -12.4381 -25.1696
rtoes 1.45509
lfemur 181.792 221.025 166.72
ltibia -4.23278
lfoot 348.839 -313.885
ltoes -0.169577
1023
root -0.364469 17.6314 7.95393 10.1899 0.444259 -6.51764
lowerback 1.39705 0.613238 6.10422
upperback -9.90639 1.25235 -0.382799
thorax -11.2967 0.0246742 -3.96327
lowerneck -11.0337 -4.76381 -5.20633
upperneck 19.4989 -8.65507 14.0059
head 8.75907 -3.15968 4.66127
rclavicle 5.86415e-015 1.03368e-014
rhumerus -69.2909 -10.9292 -63.8331
rradius 128.381
rwrist 12.536
rhand -17.3803 -48.9388
rfingers 7.12502
rthumb 8.86841 -78.7324
lclavicle 5.86415e-015 1.03368e-014
lhumerus -65.8465 20.9906 46.7709
lradius 131.554
lwrist -0.0718238
lhand -29.1961 -16.2677
lfingers 7.12502
lthumb -2.54109 13.697
rfemur -3.98395 24.411 23.5862
rtibia 2.46953
rfoot -12.5676 -24.8721
rtoes 1.32889
lfemur 182.509 220.403 166.156
ltibia -4.17643
lfoot 349.048 -314.557
ltoes -0.707083
1024
root -0.369055 17.6247 7.95291 9.62886 0.47132 -6.45641
lowerback 1.28664 0.58449 5.90298
upperback -9.87209 1.19203 -0.354345
thorax -11.1959 0.0199295 -3.81049
lowerneck -10.824 -4.69193 -5.16474
upperneck 19.779 -8.56845 13.8526
head 8.79467 -3.12887 4.62116
rclavicle 7.95139e-016 -1.03368e-014
rhumerus -68.9338 -11.3609 -66.6153
rradius 127.958
rwrist 13.3746
rhand -18.77 -48.9923
rfingers 7.12502
rthumb 7.5272 -78.8384
lclavicle 7.95139e-016 -1.03368e-014
lhumerus -65.6903 21.3963 50.103
lradius 130.429
lwrist -0.604963
lhand -31.5395 -17.5524
lfingers 7.12502
lthumb -4.80404 12.3731
rfemur -3.4383 24.0794 23.7871
rtibia 2.68452
rfoot -12.6853 -24.6098
rtoes 1.23741
lfemur 183.151 219.828 165.681
ltibia -4.11592
lfoot 349.202 -315.161
ltoes -1.16796
1025
root -0.373029 17.6182 7.95241 9.13189 0.498946 -6.42783
lowerback 1.15527 0.554851 5.72621
upperback -9.86515 1.13456 -0.302117
thorax -11.1139 0.0142096 -3.64618
lowerneck -10.5954 -4.60136 -5.10288
upperneck 20.0138 -8.44261 13.6561
head 8.80434 -3.08459 4.56621
rclavicle -2.08724e-015 7.95139e-015
rhumerus -68.4383 -11.6493 -69.1077
rradius 127.215
rwrist 14.3385
rhand -20.2446 -48.7448
rfingers 7.12502
rthumb 6.10367 -78.6369
lclavicle -2.08724e-015 7.95139e-015
lhumerus -65.3819 21.6897 53.1702
lradius 128.862
lwrist -1.00122
lhand -33.5394 -18.8667
lfingers 7.12502
lthumb -6.73492 11.0062
rfemur -2.94518 23.8062 23.9915
rtibia 2.85845
rfoot -12.7944 -24.4049
rtoes 1.19346
lfemur 183.711 219.321 165.307
ltibia -4.06185
lfoot 349.321 -315.692
ltoes -1.56999
1026
root -0.376151 17.6127 7.95353 8.70539 0.536294 -6.43837
lowerback 0.989751 0.527815 5.60091
upperback -9.88995 1.08473 -0.237215
thorax -11.0473 0.00694268 -3.49782
lowerneck -10.3551 -4.52508 -5.06626
upperneck 20.2013 -8.32548 13.4597
head 8.79806 -3.04853 4.5134
rclavicle -3.67752e-015 -1.74931e-014
rhumerus -67.877 -11.8164 -71.2623
rradius 126.125
rwrist 15.4741
rhand -21.8271 -48.2516
rfingers 7.12502
rthumb 4.57575 -78.1821
lclavicle -3.67752e-015 -1.74931e-014
lhumerus -64.9649 21.8633 55.8787
lradius 126.819
lwrist -1.25446
lhand -35.102 -20.2675
lfingers 7.12502
lthumb -8.24325 9.55167
rfemur -2.49566 23.591 24.212
rtibia 2.97616
rfoot -12.8907 -24.2623
rtoes 1.18968
lfemur 184.189 218.876 165.038
ltibia -4.01701
lfoot 349.417 -316.162
ltoes -1.92157
